<?xml version="1.0" encoding="UTF-8" standalone="no"?>
<!-- Created with Inkscape (http://www.inkscape.org/) -->

<svg
   width="80.267456mm"
   height="80.267456mm"
   viewBox="0 0 80.267457 80.267457"
   version="1.1"
   id="svg1"
   xml:space="preserve"
   inkscape:export-filename="unsolved.svg"
   inkscape:export-xdpi="96"
   inkscape:export-ydpi="96"
   xmlns:inkscape="http://www.inkscape.org/namespaces/inkscape"
   xmlns:sodipodi="http://sodipodi.sourceforge.net/DTD/sodipodi-0.dtd"
   xmlns="http://www.w3.org/2000/svg"
   xmlns:svg="http://www.w3.org/2000/svg"><sodipodi:namedview
     id="namedview1"
     pagecolor="#ffffff"
     bordercolor="#000000"
     borderopacity="0.25"
     inkscape:showpageshadow="2"
     inkscape:pageopacity="0.0"
     inkscape:pagecheckerboard="0"
     inkscape:deskcolor="#d1d1d1"
     inkscape:document-units="mm"
     inkscape:zoom="1.0476394"
     inkscape:cx="224.31382"
     inkscape:cy="125.52029"
     inkscape:window-width="1920"
     inkscape:window-height="991"
     inkscape:window-x="-9"
     inkscape:window-y="-9"
     inkscape:window-maximized="1"
     inkscape:current-layer="layer1" /><defs
     id="defs1" /><g
     inkscape:label="Layer 1"
     inkscape:groupmode="layer"
     id="layer1"
     transform="translate(-144.65237,-56.974015)"><g
       id="g6"
       inkscape:label="Hovered"
       inkscape:export-filename="hovered.svg"
       inkscape:export-xdpi="96"
       inkscape:export-ydpi="96"><circle
         style="fill:#000000;fill-opacity:1;stroke:none;stroke-width:20;stroke-linecap:round;stroke-linejoin:round;paint-order:stroke fill markers"
         id="circle2"
         cy="97.107742"
         cx="184.7861"
         r="21.090357" /><circle
         style="fill:#ff0000;fill-opacity:1;stroke:none;stroke-width:20;stroke-linecap:round;stroke-linejoin:round;paint-order:stroke fill markers"
         id="path1-5"
         cy="97.107742"
         cx="184.7861"
         r="14.916108" /><path
         d="m 184.78636,56.974015 a 40.13382,40.13382 0 0 0 -40.13399,40.133465 40.13382,40.13382 0 0 0 40.13399,40.13399 40.13382,40.13382 0 0 0 40.13347,-40.13399 40.13382,40.13382 0 0 0 -40.13347,-40.133465 z m 0,8.695595 a 31.438139,31.438139 0 0 1 31.43787,31.43787 31.438139,31.438139 0 0 1 -31.43787,31.4384 31.438139,31.438139 0 0 1 -31.43839,-31.4384 31.438139,31.438139 0 0 1 31.43839,-31.43787 z"
         style="display:inline;opacity:0.55;fill:#181818;fill-opacity:1;stroke-width:20;stroke-linecap:round;stroke-linejoin:round;paint-order:stroke fill markers"
         id="path5"
         inkscape:export-filename="hovered.svg"
         inkscape:export-xdpi="96"
         inkscape:export-ydpi="96" /></g></g></svg>
